<svg width="42" height="42" viewBox="0 0 42 42" fill="none" xmlns="http://www.w3.org/2000/svg">
<g clip-path="url(#clip0_44121_621)">
<circle cx="21" cy="21" r="20" stroke="#002EB7" stroke-width="2"/>
<path d="M19.9762 33.075V29.7675C17.8587 29.61 16.2749 28.9975 15.2249 27.93C14.1749 26.845 13.5799 25.445 13.4399 23.73H16.6949C16.8174 24.7275 17.1062 25.5238 17.5612 26.1188C18.0337 26.6963 18.8387 27.055 19.9762 27.195V21.2888C17.9637 20.9388 16.4762 20.3525 15.5137 19.53C14.5512 18.7075 14.0699 17.4913 14.0699 15.8813C14.0699 14.4113 14.6124 13.1863 15.6974 12.2063C16.7824 11.2263 18.2087 10.675 19.9762 10.5525V8.19003H21.7349V10.5788C23.4499 10.7363 24.8062 11.2613 25.8037 12.1538C26.8012 13.0463 27.3787 14.2975 27.5362 15.9075H24.4387C24.1412 14.2975 23.2399 13.37 21.7349 13.125V18.5063C23.8174 18.8388 25.3574 19.4163 26.3549 20.2388C27.3699 21.0613 27.8774 22.3125 27.8774 23.9925C27.8774 25.5675 27.3262 26.8975 26.2237 27.9825C25.1212 29.05 23.6249 29.645 21.7349 29.7675V33.075H19.9762ZM23.8612 26.25C24.3862 25.725 24.6487 25.0775 24.6487 24.3075C24.6487 23.5375 24.4387 22.9513 24.0187 22.5488C23.6162 22.1463 22.8549 21.8225 21.7349 21.5775V27.195C22.6274 27.0725 23.3362 26.7575 23.8612 26.25ZM17.1674 15.5925C17.1674 16.3275 17.3599 16.8963 17.7449 17.2988C18.1299 17.6838 18.8737 17.99 19.9762 18.2175V13.0463C19.0837 13.1513 18.3924 13.44 17.9024 13.9125C17.4124 14.3675 17.1674 14.9275 17.1674 15.5925Z" fill="#002EB7"/>
</g>
<defs>
<clipPath id="clip0_44121_621">
<rect width="42" height="42" fill="white"/>
</clipPath>
</defs>
</svg>
