<svg width="350" height="105" viewBox="0 0 350 105" fill="none" xmlns="http://www.w3.org/2000/svg">
<path d="M42.2681 85H43.4861V80.646L46.6501 74.99H45.4321L42.9121 79.638L40.2941 74.99H38.9221L42.2681 80.632V85ZM50.3509 84.16C48.8669 84.16 47.9569 83.068 47.9569 81.402V81.29C47.9569 79.61 48.8809 78.518 50.3509 78.518C51.8069 78.518 52.7449 79.61 52.7449 81.304V81.402C52.7449 83.054 51.8209 84.16 50.3509 84.16ZM50.3369 85.126C52.4229 85.126 53.9489 83.6 53.9489 81.388V81.276C53.9489 79.078 52.4229 77.552 50.3509 77.552C48.2789 77.552 46.7529 79.092 46.7529 81.29V81.402C46.7529 83.544 48.2509 85.126 50.3369 85.126ZM58.3661 85.126C59.5421 85.126 60.3541 84.524 60.6901 83.838V85H61.8521V77.678H60.6901V82.116C60.6901 83.432 59.7101 84.118 58.6741 84.118C57.5261 84.118 56.9801 83.544 56.9801 82.256V77.678H55.8181V82.312C55.8181 84.328 56.9101 85.126 58.3661 85.126ZM70.9437 85.126C72.0077 85.126 73.0297 84.454 73.4497 83.74V85H74.6117V74.178H73.4497V78.854C73.0297 78.14 72.2737 77.552 71.0557 77.552C69.0397 77.552 67.6397 79.134 67.6397 81.374V81.486C67.6397 83.768 69.0257 85.126 70.9437 85.126ZM71.0697 84.16C69.8377 84.16 68.8437 83.278 68.8437 81.43V81.318C68.8437 79.54 69.7117 78.518 71.1677 78.518C72.5957 78.518 73.4917 79.4 73.4917 81.276V81.388C73.4917 83.264 72.4277 84.16 71.0697 84.16ZM80.155 84.16C78.671 84.16 77.761 83.068 77.761 81.402V81.29C77.761 79.61 78.685 78.518 80.155 78.518C81.611 78.518 82.549 79.61 82.549 81.304V81.402C82.549 83.054 81.625 84.16 80.155 84.16ZM80.141 85.126C82.227 85.126 83.753 83.6 83.753 81.388V81.276C83.753 79.078 82.227 77.552 80.155 77.552C78.083 77.552 76.557 79.092 76.557 81.29V81.402C76.557 83.544 78.055 85.126 80.141 85.126ZM85.6923 85H86.8543V80.562C86.8543 79.246 87.8203 78.56 88.8983 78.56C90.0743 78.56 90.6203 79.134 90.6203 80.422V85H91.7823V80.506C91.7823 78.378 90.7183 77.552 89.2063 77.552C88.0023 77.552 87.1903 78.154 86.8543 78.84V77.678H85.6923V85ZM94.122 78.168L95.76 75.34L94.654 74.836L93.408 77.804L94.122 78.168ZM99.6553 85.098C100.131 85.098 100.411 85.028 100.649 84.944V83.964C100.397 84.062 100.117 84.118 99.7533 84.118C99.1653 84.118 98.8433 83.768 98.8433 83.054V78.658H100.551V77.678H98.8433V76.012H97.6813V77.678H96.6313V78.658H97.6813V83.166C97.6813 84.314 98.3253 85.098 99.6553 85.098ZM109.443 84.16C107.959 84.16 107.049 83.068 107.049 81.402V81.29C107.049 79.61 107.973 78.518 109.443 78.518C110.899 78.518 111.837 79.61 111.837 81.304V81.402C111.837 83.054 110.913 84.16 109.443 84.16ZM109.429 85.126C111.515 85.126 113.041 83.6 113.041 81.388V81.276C113.041 79.078 111.515 77.552 109.443 77.552C107.371 77.552 105.845 79.092 105.845 81.29V81.402C105.845 83.544 107.343 85.126 109.429 85.126ZM116.313 85H117.587L119.295 79.512L120.821 85H122.109L124.391 77.678H123.201L121.479 83.572L119.813 77.678H118.805L117.027 83.572L115.319 77.678H114.059L116.313 85ZM126.099 85H127.261V80.562C127.261 79.246 128.227 78.56 129.305 78.56C130.481 78.56 131.027 79.134 131.027 80.422V85H132.189V80.506C132.189 78.378 131.125 77.552 129.613 77.552C128.409 77.552 127.597 78.154 127.261 78.84V77.678H126.099V85ZM140.285 85.126C141.363 85.126 142.021 84.762 142.567 84.076V85H143.729V80.17C143.729 78.126 142.455 77.552 141.055 77.552C139.641 77.552 138.311 78.168 138.157 79.834H139.319C139.431 78.938 139.991 78.518 140.999 78.518C142.119 78.518 142.567 79.008 142.567 80.17V80.702H141.517C139.641 80.702 137.849 81.276 137.849 82.97C137.849 84.468 138.927 85.126 140.285 85.126ZM140.397 84.202C139.375 84.202 139.011 83.726 139.011 82.97C139.011 81.892 140.089 81.528 141.559 81.528H142.567V82.438C142.567 83.572 141.629 84.202 140.397 84.202ZM146.151 85H147.313V80.562C147.313 79.246 148.279 78.56 149.357 78.56C150.533 78.56 151.079 79.134 151.079 80.422V85H152.241V80.506C152.241 78.378 151.177 77.552 149.665 77.552C148.461 77.552 147.649 78.154 147.313 78.84V77.678H146.151V85ZM155.112 87.548H156.288L160.334 77.678H159.144L157.114 82.928L154.874 77.678H153.628L156.498 84.244L155.112 87.548ZM168.887 85.126C170.651 85.126 171.925 83.95 172.079 82.368H171.001C170.875 83.558 169.937 84.16 168.901 84.16C167.487 84.16 166.507 83.208 166.507 81.416V81.304C166.507 79.582 167.529 78.518 168.859 78.518C169.867 78.518 170.707 78.952 170.889 80.114H172.037C171.813 78.252 170.385 77.552 168.859 77.552C166.899 77.552 165.303 79.064 165.303 81.304V81.416C165.303 83.684 166.843 85.126 168.887 85.126ZM173.973 85H175.135V80.982C175.135 79.176 176.073 78.714 177.543 78.644V77.552C176.227 77.594 175.597 78.168 175.135 78.994V77.678H173.973V85ZM180.103 87.548H181.279L185.325 77.678H184.135L182.105 82.928L179.865 77.678H178.619L181.489 84.244L180.103 87.548ZM186.995 87.548H188.157V83.796C188.577 84.524 189.431 85.126 190.635 85.126C192.651 85.126 193.967 83.586 193.967 81.346V81.234C193.967 78.952 192.553 77.552 190.635 77.552C189.571 77.552 188.577 78.196 188.157 78.91V77.678H186.995V87.548ZM190.523 84.16C189.095 84.16 188.115 83.278 188.115 81.402V81.29C188.115 79.414 189.151 78.518 190.509 78.518C191.741 78.518 192.763 79.442 192.763 81.29V81.402C192.763 83.18 191.979 84.16 190.523 84.16ZM198.139 85.098C198.615 85.098 198.895 85.028 199.133 84.944V83.964C198.881 84.062 198.601 84.118 198.237 84.118C197.649 84.118 197.327 83.768 197.327 83.054V78.658H199.035V77.678H197.327V76.012H196.165V77.678H195.115V78.658H196.165V83.166C196.165 84.314 196.809 85.098 198.139 85.098ZM204.081 84.16C202.597 84.16 201.687 83.068 201.687 81.402V81.29C201.687 79.61 202.611 78.518 204.081 78.518C205.537 78.518 206.475 79.61 206.475 81.304V81.402C206.475 83.054 205.551 84.16 204.081 84.16ZM204.067 85.126C206.153 85.126 207.679 83.6 207.679 81.388V81.276C207.679 79.078 206.153 77.552 204.081 77.552C202.009 77.552 200.483 79.092 200.483 81.29V81.402C200.483 83.544 201.981 85.126 204.067 85.126ZM210.061 85.07C210.551 85.07 210.957 84.678 210.957 84.174C210.957 83.67 210.551 83.278 210.061 83.278C209.571 83.278 209.165 83.67 209.165 84.174C209.165 84.678 209.571 85.07 210.061 85.07ZM220.517 85.126C222.505 85.126 223.975 83.852 223.975 82.172C223.975 80.282 222.799 79.61 220.573 79.26C218.529 78.952 218.165 78.448 218.165 77.468C218.165 76.53 218.879 75.844 220.251 75.844C221.637 75.844 222.365 76.362 222.603 77.622H223.695C223.499 75.844 222.253 74.864 220.251 74.864C218.361 74.864 217.031 76.04 217.031 77.58C217.031 79.358 218.277 80.016 220.377 80.338C222.281 80.646 222.799 81.122 222.799 82.256C222.799 83.39 221.805 84.146 220.517 84.146C218.501 84.146 218.025 83.138 217.871 81.948H216.695C216.877 83.656 217.843 85.126 220.517 85.126ZM229.113 85.126C230.765 85.126 231.983 84.356 232.235 82.886H231.073C230.919 83.74 230.261 84.16 229.127 84.16C227.629 84.16 226.831 83.236 226.775 81.57H232.291V81.192C232.291 78.574 230.695 77.552 229.001 77.552C226.985 77.552 225.571 79.092 225.571 81.304V81.416C225.571 83.67 227.041 85.126 229.113 85.126ZM226.817 80.632C227.013 79.33 227.811 78.518 229.001 78.518C230.205 78.518 230.989 79.12 231.101 80.632H226.817ZM234.214 85H235.376V80.562C235.376 79.246 236.342 78.56 237.42 78.56C238.596 78.56 239.142 79.134 239.142 80.422V85H240.304V80.506C240.304 78.378 239.24 77.552 237.728 77.552C236.524 77.552 235.712 78.154 235.376 78.84V77.678H234.214V85ZM245.479 85.126C246.543 85.126 247.565 84.454 247.985 83.74V85H249.147V74.178H247.985V78.854C247.565 78.14 246.809 77.552 245.591 77.552C243.575 77.552 242.175 79.134 242.175 81.374V81.486C242.175 83.768 243.561 85.126 245.479 85.126ZM245.605 84.16C244.373 84.16 243.379 83.278 243.379 81.43V81.318C243.379 79.54 244.247 78.518 245.703 78.518C247.131 78.518 248.027 79.4 248.027 81.276V81.388C248.027 83.264 246.963 84.16 245.605 84.16ZM256.141 87.548H257.317L261.363 77.678H260.173L258.143 82.928L255.903 77.678H254.657L257.527 84.244L256.141 87.548ZM265.88 84.16C264.396 84.16 263.486 83.068 263.486 81.402V81.29C263.486 79.61 264.41 78.518 265.88 78.518C267.336 78.518 268.274 79.61 268.274 81.304V81.402C268.274 83.054 267.35 84.16 265.88 84.16ZM265.866 85.126C267.952 85.126 269.478 83.6 269.478 81.388V81.276C269.478 79.078 267.952 77.552 265.88 77.552C263.808 77.552 262.282 79.092 262.282 81.29V81.402C262.282 83.544 263.78 85.126 265.866 85.126ZM273.896 85.126C275.072 85.126 275.884 84.524 276.22 83.838V85H277.382V77.678H276.22V82.116C276.22 83.432 275.24 84.118 274.204 84.118C273.056 84.118 272.51 83.544 272.51 82.256V77.678H271.348V82.312C271.348 84.328 272.44 85.126 273.896 85.126ZM279.87 85H281.032V80.982C281.032 79.176 281.97 78.714 283.44 78.644V77.552C282.124 77.594 281.494 78.168 281.032 78.994V77.678H279.87V85ZM287.473 85.126C289.251 85.126 290.161 84.23 290.161 82.9C290.161 81.346 289.097 81.01 287.585 80.73C286.241 80.492 285.877 80.226 285.877 79.568C285.877 78.938 286.423 78.518 287.263 78.518C288.187 78.518 288.635 78.868 288.803 79.666H289.923C289.727 78.084 288.593 77.552 287.277 77.552C286.129 77.552 284.799 78.252 284.799 79.61C284.799 80.884 285.443 81.416 287.347 81.766C288.481 81.976 289.055 82.228 289.055 82.998C289.055 83.782 288.565 84.16 287.459 84.16C286.283 84.16 285.821 83.614 285.737 82.746H284.603C284.673 84.244 285.723 85.126 287.473 85.126ZM295.068 85.126C296.72 85.126 297.938 84.356 298.19 82.886H297.028C296.874 83.74 296.216 84.16 295.082 84.16C293.584 84.16 292.786 83.236 292.73 81.57H298.246V81.192C298.246 78.574 296.65 77.552 294.956 77.552C292.94 77.552 291.526 79.092 291.526 81.304V81.416C291.526 83.67 292.996 85.126 295.068 85.126ZM292.772 80.632C292.968 79.33 293.766 78.518 294.956 78.518C296.16 78.518 296.944 79.12 297.056 80.632H292.772ZM300.197 85H301.373V74.178H300.197V85ZM304.143 85H305.305V78.658H307.097V77.678H305.305V76.362C305.305 75.62 305.613 75.102 306.369 75.102C306.691 75.102 306.985 75.172 307.195 75.256V74.276C306.901 74.178 306.705 74.136 306.327 74.136C304.871 74.136 304.143 75.004 304.143 76.488V77.678H303.093V78.658H304.143V85ZM87.0801 101.126C88.8581 101.126 89.7681 100.23 89.7681 98.9C89.7681 97.346 88.7041 97.01 87.1921 96.73C85.8481 96.492 85.4841 96.226 85.4841 95.568C85.4841 94.938 86.0301 94.518 86.8701 94.518C87.7941 94.518 88.2421 94.868 88.4101 95.666H89.5301C89.3341 94.084 88.2001 93.552 86.8841 93.552C85.7361 93.552 84.4061 94.252 84.4061 95.61C84.4061 96.884 85.0501 97.416 86.9541 97.766C88.0881 97.976 88.6621 98.228 88.6621 98.998C88.6621 99.782 88.1721 100.16 87.0661 100.16C85.8901 100.16 85.4281 99.614 85.3441 98.746H84.2101C84.2801 100.244 85.3301 101.126 87.0801 101.126ZM94.7306 100.16C93.2466 100.16 92.3366 99.068 92.3366 97.402V97.29C92.3366 95.61 93.2606 94.518 94.7306 94.518C96.1866 94.518 97.1246 95.61 97.1246 97.304V97.402C97.1246 99.054 96.2006 100.16 94.7306 100.16ZM94.7166 101.126C96.8026 101.126 98.3286 99.6 98.3286 97.388V97.276C98.3286 95.078 96.8026 93.552 94.7306 93.552C92.6586 93.552 91.1326 95.092 91.1326 97.29V97.402C91.1326 99.544 92.6306 101.126 94.7166 101.126ZM100.268 101H101.43V96.52C101.43 95.204 102.41 94.56 103.362 94.56C104.37 94.56 104.916 95.092 104.916 96.38V101H106.078V96.52C106.078 95.204 107.058 94.56 108.01 94.56C109.018 94.56 109.564 95.092 109.564 96.38V101H110.726V96.464C110.726 94.336 109.578 93.552 108.262 93.552C107.352 93.552 106.26 93.972 105.756 94.924C105.378 93.944 104.552 93.552 103.614 93.552C102.564 93.552 101.766 94.112 101.43 94.798V93.678H100.268V101ZM116.146 101.126C117.798 101.126 119.016 100.356 119.268 98.886H118.106C117.952 99.74 117.294 100.16 116.16 100.16C114.662 100.16 113.864 99.236 113.808 97.57H119.324V97.192C119.324 94.574 117.728 93.552 116.034 93.552C114.018 93.552 112.604 95.092 112.604 97.304V97.416C112.604 99.67 114.074 101.126 116.146 101.126ZM113.85 96.632C114.046 95.33 114.844 94.518 116.034 94.518C117.238 94.518 118.022 95.12 118.134 96.632H113.85ZM128.13 101.126C129.894 101.126 131.168 99.95 131.322 98.368H130.244C130.118 99.558 129.18 100.16 128.144 100.16C126.73 100.16 125.75 99.208 125.75 97.416V97.304C125.75 95.582 126.772 94.518 128.102 94.518C129.11 94.518 129.95 94.952 130.132 96.114H131.28C131.056 94.252 129.628 93.552 128.102 93.552C126.142 93.552 124.546 95.064 124.546 97.304V97.416C124.546 99.684 126.086 101.126 128.13 101.126ZM133.217 101H134.379V96.982C134.379 95.176 135.317 94.714 136.787 94.644V93.552C135.471 93.594 134.841 94.168 134.379 94.994V93.678H133.217V101ZM139.347 103.548H140.523L144.569 93.678H143.379L141.349 98.928L139.109 93.678H137.863L140.733 100.244L139.347 103.548ZM146.239 103.548H147.401V99.796C147.821 100.524 148.675 101.126 149.879 101.126C151.895 101.126 153.211 99.586 153.211 97.346V97.234C153.211 94.952 151.797 93.552 149.879 93.552C148.815 93.552 147.821 94.196 147.401 94.91V93.678H146.239V103.548ZM149.767 100.16C148.339 100.16 147.359 99.278 147.359 97.402V97.29C147.359 95.414 148.395 94.518 149.753 94.518C150.985 94.518 152.007 95.442 152.007 97.29V97.402C152.007 99.18 151.223 100.16 149.767 100.16ZM157.382 101.098C157.858 101.098 158.138 101.028 158.376 100.944V99.964C158.124 100.062 157.844 100.118 157.48 100.118C156.892 100.118 156.57 99.768 156.57 99.054V94.658H158.278V93.678H156.57V92.012H155.408V93.678H154.358V94.658H155.408V99.166C155.408 100.314 156.052 101.098 157.382 101.098ZM163.325 100.16C161.841 100.16 160.931 99.068 160.931 97.402V97.29C160.931 95.61 161.855 94.518 163.325 94.518C164.781 94.518 165.719 95.61 165.719 97.304V97.402C165.719 99.054 164.795 100.16 163.325 100.16ZM163.311 101.126C165.397 101.126 166.923 99.6 166.923 97.388V97.276C166.923 95.078 165.397 93.552 163.325 93.552C161.253 93.552 159.727 95.092 159.727 97.29V97.402C159.727 99.544 161.225 101.126 163.311 101.126ZM174.933 101.098C175.409 101.098 175.689 101.028 175.927 100.944V99.964C175.675 100.062 175.395 100.118 175.031 100.118C174.443 100.118 174.121 99.768 174.121 99.054V94.658H175.829V93.678H174.121V92.012H172.959V93.678H171.909V94.658H172.959V99.166C172.959 100.314 173.603 101.098 174.933 101.098ZM180.875 100.16C179.391 100.16 178.481 99.068 178.481 97.402V97.29C178.481 95.61 179.405 94.518 180.875 94.518C182.331 94.518 183.269 95.61 183.269 97.304V97.402C183.269 99.054 182.345 100.16 180.875 100.16ZM180.861 101.126C182.947 101.126 184.473 99.6 184.473 97.388V97.276C184.473 95.078 182.947 93.552 180.875 93.552C178.803 93.552 177.277 95.092 177.277 97.29V97.402C177.277 99.544 178.775 101.126 180.861 101.126ZM193.184 103.674C195.228 103.674 196.67 102.638 196.684 100.51V93.678H195.522V94.854C195.102 94.14 194.346 93.552 193.128 93.552C191.112 93.552 189.712 95.204 189.712 97.192V97.29C189.712 99.306 191.126 100.762 193.044 100.762C194.108 100.762 195.102 100.09 195.522 99.376V100.44C195.522 102.008 194.612 102.694 193.17 102.694C191.924 102.694 191.224 102.26 191.056 101.42H189.866C190.062 102.652 191.014 103.674 193.184 103.674ZM193.17 99.796C191.938 99.796 190.916 98.844 190.916 97.248V97.136C190.916 95.596 191.784 94.518 193.24 94.518C194.668 94.518 195.564 95.47 195.564 97.108V97.206C195.564 98.844 194.528 99.796 193.17 99.796ZM202.171 101.126C203.823 101.126 205.041 100.356 205.293 98.886H204.131C203.977 99.74 203.319 100.16 202.185 100.16C200.687 100.16 199.889 99.236 199.833 97.57H205.349V97.192C205.349 94.574 203.753 93.552 202.059 93.552C200.043 93.552 198.629 95.092 198.629 97.304V97.416C198.629 99.67 200.099 101.126 202.171 101.126ZM199.875 96.632C200.071 95.33 200.869 94.518 202.059 94.518C203.263 94.518 204.047 95.12 204.159 96.632H199.875ZM209.498 101.098C209.974 101.098 210.254 101.028 210.492 100.944V99.964C210.24 100.062 209.96 100.118 209.596 100.118C209.008 100.118 208.686 99.768 208.686 99.054V94.658H210.394V93.678H208.686V92.012H207.524V93.678H206.474V94.658H207.524V99.166C207.524 100.314 208.168 101.098 209.498 101.098ZM218.502 101.126C220.28 101.126 221.19 100.23 221.19 98.9C221.19 97.346 220.126 97.01 218.614 96.73C217.27 96.492 216.906 96.226 216.906 95.568C216.906 94.938 217.452 94.518 218.292 94.518C219.216 94.518 219.664 94.868 219.832 95.666H220.952C220.756 94.084 219.622 93.552 218.306 93.552C217.158 93.552 215.828 94.252 215.828 95.61C215.828 96.884 216.472 97.416 218.376 97.766C219.51 97.976 220.084 98.228 220.084 98.998C220.084 99.782 219.594 100.16 218.488 100.16C217.312 100.16 216.85 99.614 216.766 98.746H215.632C215.702 100.244 216.752 101.126 218.502 101.126ZM225.326 101.098C225.802 101.098 226.082 101.028 226.32 100.944V99.964C226.068 100.062 225.788 100.118 225.424 100.118C224.836 100.118 224.514 99.768 224.514 99.054V94.658H226.222V93.678H224.514V92.012H223.352V93.678H222.302V94.658H223.352V99.166C223.352 100.314 223.996 101.098 225.326 101.098ZM230.119 101.126C231.197 101.126 231.855 100.762 232.401 100.076V101H233.563V96.17C233.563 94.126 232.289 93.552 230.889 93.552C229.475 93.552 228.145 94.168 227.991 95.834H229.153C229.265 94.938 229.825 94.518 230.833 94.518C231.953 94.518 232.401 95.008 232.401 96.17V96.702H231.351C229.475 96.702 227.683 97.276 227.683 98.97C227.683 100.468 228.761 101.126 230.119 101.126ZM230.231 100.202C229.209 100.202 228.845 99.726 228.845 98.97C228.845 97.892 229.923 97.528 231.393 97.528H232.401V98.438C232.401 99.572 231.463 100.202 230.231 100.202ZM235.986 101H237.148V96.982C237.148 95.176 238.086 94.714 239.556 94.644V93.552C238.24 93.594 237.61 94.168 237.148 94.994V93.678H235.986V101ZM243.684 101.098C244.16 101.098 244.44 101.028 244.678 100.944V99.964C244.426 100.062 244.146 100.118 243.782 100.118C243.194 100.118 242.872 99.768 242.872 99.054V94.658H244.58V93.678H242.872V92.012H241.71V93.678H240.66V94.658H241.71V99.166C241.71 100.314 242.354 101.098 243.684 101.098ZM249.57 101.126C251.222 101.126 252.44 100.356 252.692 98.886H251.53C251.376 99.74 250.718 100.16 249.584 100.16C248.086 100.16 247.288 99.236 247.232 97.57H252.748V97.192C252.748 94.574 251.152 93.552 249.458 93.552C247.442 93.552 246.028 95.092 246.028 97.304V97.416C246.028 99.67 247.498 101.126 249.57 101.126ZM247.274 96.632C247.47 95.33 248.268 94.518 249.458 94.518C250.662 94.518 251.446 95.12 251.558 96.632H247.274ZM257.429 101.126C258.493 101.126 259.515 100.454 259.935 99.74V101H261.097V90.178H259.935V94.854C259.515 94.14 258.759 93.552 257.541 93.552C255.525 93.552 254.125 95.134 254.125 97.374V97.486C254.125 99.768 255.511 101.126 257.429 101.126ZM257.555 100.16C256.323 100.16 255.329 99.278 255.329 97.43V97.318C255.329 95.54 256.197 94.518 257.653 94.518C259.081 94.518 259.977 95.4 259.977 97.276V97.388C259.977 99.264 258.913 100.16 257.555 100.16ZM264.387 101.07C264.877 101.07 265.283 100.678 265.283 100.174C265.283 99.67 264.877 99.278 264.387 99.278C263.897 99.278 263.491 99.67 263.491 100.174C263.491 100.678 263.897 101.07 264.387 101.07Z" fill="#7D7D89"/>
<g opacity="0.5">
<g clip-path="url(#clip0_609_5161)">
<path d="M161.497 51.8856L148.249 54.8576C148.249 54.8576 145.547 54.5518 148.109 50.8009C148.339 50.463 148.612 50.0997 148.933 49.705L155.799 46.354L155.735 45.9035L154.274 35.6511L153.708 31.6831L158.018 27.6991L158.84 26.938L169.778 36.9983L169.7 37.1414L165.128 45.3594L161.497 51.8856Z" fill="#FFB7B7"/>
<path d="M156.599 48.8978L143.35 51.8698C143.151 51.8474 142.959 51.7833 142.787 51.6817C142.615 51.5801 142.466 51.4433 142.351 51.2804C142.236 51.1175 142.157 50.9322 142.119 50.7367C142.082 50.5412 142.086 50.34 142.132 50.1463C142.196 49.7631 142.317 49.3915 142.49 49.0434C142.911 48.2102 143.429 47.4294 144.034 46.7172L150.901 43.3662L150.059 37.4616L149.639 34.517L149.368 32.6133L148.81 28.6953L153.942 23.9502L159.531 29.0903L164.879 34.0105L164.157 35.3059L163.297 36.8541L159.167 44.2808L158.326 45.7937L156.599 48.8978Z" fill="#FFB7B7"/>
<path d="M179.633 46.8223C179.633 46.8223 174.668 46.4937 172.812 43.1539C172.224 42.0489 171.997 40.7892 172.163 39.5502L170.14 35.5727L167.26 29.9055L159.914 28.7521L159.531 29.0903L154.205 33.7962L152.575 35.2362L150.058 37.4616L137.854 48.2439C137.369 49.1048 136.744 49.8807 136.006 50.5409C135.328 51.1668 134.582 51.7155 133.781 52.1768C131.452 53.5205 127.971 54.565 122.966 54.0165L96.5789 61L94 43.4022L116.132 36.166L148.59 15.0535L170.501 20.6295L180.661 34.9762L179.633 46.8223Z" fill="#FFB7B7"/>
<path d="M254.661 0H162.255C161.9 0.000395181 161.56 0.140832 161.309 0.390493C161.058 0.640154 160.917 0.978654 160.916 1.33173V55.7422C160.917 56.0953 161.058 56.4338 161.309 56.6835C161.56 56.9331 161.9 57.0736 162.255 57.0739H254.661C255.016 57.0736 255.356 56.9331 255.607 56.6834C255.858 56.4338 256 56.0953 256 55.7422V1.33172C256 0.978653 255.858 0.640164 255.607 0.390508C255.356 0.140852 255.016 0.000410796 254.661 0Z" fill="white"/>
<path d="M254.661 0H162.255C161.9 0.000395181 161.56 0.140832 161.309 0.390493C161.058 0.640154 160.917 0.978654 160.916 1.33173V55.7422C160.917 56.0953 161.058 56.4338 161.309 56.6835C161.56 56.9331 161.9 57.0736 162.255 57.0739H254.661C255.016 57.0736 255.356 56.9331 255.607 56.6834C255.858 56.4338 256 56.0953 256 55.7422V1.33172C256 0.978653 255.858 0.640164 255.607 0.390508C255.356 0.140852 255.016 0.000410796 254.661 0ZM255.617 55.7422C255.617 55.9945 255.516 56.2364 255.337 56.4147C255.158 56.5931 254.914 56.6934 254.661 56.6934H162.255C162.002 56.6934 161.759 56.5931 161.579 56.4147C161.4 56.2364 161.299 55.9945 161.299 55.7422V1.33172C161.299 1.07947 161.4 0.837584 161.579 0.659217C161.759 0.480851 162.002 0.380601 162.255 0.380493H254.661C254.914 0.3806 255.158 0.48085 255.337 0.659217C255.516 0.837584 255.617 1.07947 255.617 1.33172V55.7422Z" fill="#4B4B60"/>
<path d="M171.247 7.42004C170.793 7.42004 170.349 7.28615 169.971 7.03529C169.594 6.78444 169.299 6.42789 169.126 6.01073C168.952 5.59358 168.906 5.13455 168.995 4.6917C169.084 4.24885 169.302 3.84207 169.623 3.52279C169.944 3.20351 170.353 2.98608 170.799 2.89799C171.244 2.80991 171.706 2.85511 172.125 3.02791C172.545 3.2007 172.903 3.49331 173.155 3.86874C173.408 4.24417 173.542 4.68556 173.542 5.13708C173.542 5.74256 173.301 6.32324 172.87 6.75138C172.439 7.17952 171.855 7.42004 171.247 7.42004ZM171.247 3.23461C170.868 3.23461 170.498 3.3462 170.184 3.55524C169.869 3.76429 169.624 4.06141 169.479 4.40904C169.334 4.75667 169.296 5.13919 169.37 5.50823C169.444 5.87727 169.626 6.21627 169.894 6.48233C170.161 6.7484 170.502 6.92958 170.873 7.00299C171.244 7.0764 171.629 7.03873 171.979 6.89473C172.328 6.75074 172.627 6.50689 172.837 6.19404C173.048 5.88118 173.16 5.51336 173.16 5.13708C173.16 4.88725 173.11 4.63986 173.014 4.40904C172.918 4.17822 172.777 3.9685 172.599 3.79184C172.422 3.61518 172.211 3.47504 171.979 3.37944C171.747 3.28383 171.498 3.23461 171.247 3.23461Z" fill="#0052FF"/>
<path d="M167.678 5.13708C167.678 4.7016 167.815 4.27698 168.069 3.92238C168.323 3.56778 168.682 3.30085 169.096 3.15879C168.779 3.05004 168.441 3.0182 168.109 3.0659C167.777 3.1136 167.462 3.23946 167.188 3.43301C166.915 3.62657 166.693 3.88219 166.539 4.17861C166.386 4.47502 166.306 4.80364 166.306 5.13708C166.306 5.47053 166.386 5.79914 166.539 6.09555C166.693 6.39197 166.915 6.6476 167.188 6.84115C167.462 7.0347 167.777 7.16057 168.109 7.20827C168.441 7.25597 168.779 7.22412 169.096 7.11538C168.682 6.97331 168.323 6.70638 168.069 6.35178C167.815 5.99718 167.678 5.57257 167.678 5.13708Z" fill="#0052FF"/>
<path d="M180.553 32.1098C180.096 32.1093 179.659 31.9287 179.336 31.6077C179.013 31.2868 178.832 30.8516 178.831 30.3976V25.2609C178.832 24.8072 179.013 24.3722 179.336 24.0516C179.659 23.7309 180.097 23.5508 180.553 23.5508C181.009 23.5508 181.447 23.7309 181.77 24.0516C182.093 24.3722 182.274 24.8072 182.275 25.2609V30.3976C182.274 30.8516 182.093 31.2868 181.77 31.6077C181.447 31.9287 181.009 32.1093 180.553 32.1098Z" fill="#0052FF"/>
<path d="M185.144 32.1098C184.688 32.1093 184.25 31.9287 183.927 31.6077C183.605 31.2868 183.423 30.8516 183.423 30.3976V25.2609C183.423 24.8072 183.605 24.3722 183.928 24.0516C184.25 23.7309 184.688 23.5508 185.144 23.5508C185.601 23.5508 186.038 23.7309 186.361 24.0516C186.684 24.3722 186.866 24.8072 186.866 25.2609V30.3976C186.866 30.8516 186.684 31.2868 186.361 31.6077C186.039 31.9287 185.601 32.1093 185.144 32.1098Z" fill="#0052FF"/>
<path d="M189.736 32.1098C189.28 32.1093 188.842 31.9287 188.519 31.6077C188.196 31.2868 188.015 30.8516 188.014 30.3976V25.2609C188.015 24.8072 188.196 24.3722 188.519 24.0516C188.842 23.7309 189.28 23.5508 189.736 23.5508C190.192 23.5508 190.63 23.7309 190.953 24.0516C191.276 24.3722 191.457 24.8072 191.458 25.2609V30.3976C191.457 30.8516 191.276 31.2868 190.953 31.6077C190.63 31.9287 190.193 32.1093 189.736 32.1098Z" fill="#0052FF"/>
<path d="M196.815 32.1098C196.358 32.1093 195.921 31.9287 195.598 31.6077C195.275 31.2868 195.093 30.8516 195.093 30.3976V25.2609C195.093 24.8072 195.275 24.3722 195.598 24.0516C195.921 23.7309 196.358 23.5508 196.815 23.5508C197.271 23.5508 197.709 23.7309 198.032 24.0516C198.354 24.3722 198.536 24.8072 198.537 25.2609V30.3976C198.536 30.8516 198.354 31.2868 198.032 31.6077C197.709 31.9287 197.271 32.1093 196.815 32.1098Z" fill="#0052FF"/>
<path d="M201.406 32.1098C200.95 32.1093 200.512 31.9287 200.189 31.6077C199.867 31.2868 199.685 30.8516 199.684 30.3976V25.2609C199.685 24.8072 199.867 24.3722 200.19 24.0516C200.512 23.7309 200.95 23.5508 201.406 23.5508C201.863 23.5508 202.3 23.7309 202.623 24.0516C202.946 24.3722 203.128 24.8072 203.128 25.2609V30.3976C203.128 30.8516 202.946 31.2868 202.623 31.6077C202.3 31.9287 201.863 32.1093 201.406 32.1098Z" fill="#0052FF"/>
<path d="M205.998 32.1098C205.541 32.1093 205.104 31.9287 204.781 31.6077C204.458 31.2868 204.276 30.8516 204.276 30.3976V25.2609C204.276 24.8072 204.458 24.3722 204.781 24.0516C205.104 23.7309 205.541 23.5508 205.998 23.5508C206.454 23.5508 206.892 23.7309 207.215 24.0516C207.537 24.3722 207.719 24.8072 207.72 25.2609V30.3976C207.719 30.8516 207.537 31.2868 207.215 31.6077C206.892 31.9287 206.454 32.1093 205.998 32.1098Z" fill="#0052FF"/>
<path d="M213.076 32.1098C212.62 32.1093 212.182 31.9287 211.86 31.6077C211.537 31.2868 211.355 30.8516 211.355 30.3976V25.2609C211.355 24.8072 211.537 24.3722 211.86 24.0516C212.183 23.7309 212.62 23.5508 213.076 23.5508C213.533 23.5508 213.97 23.7309 214.293 24.0516C214.616 24.3722 214.798 24.8072 214.798 25.2609V30.3976C214.798 30.8516 214.616 31.2868 214.293 31.6077C213.971 31.9287 213.533 32.1093 213.076 32.1098Z" fill="#0052FF"/>
<path d="M217.668 32.1098C217.211 32.1093 216.774 31.9287 216.451 31.6077C216.128 31.2868 215.947 30.8516 215.946 30.3976V25.2609C215.947 24.8072 216.128 24.3722 216.451 24.0516C216.774 23.7309 217.212 23.5508 217.668 23.5508C218.124 23.5508 218.562 23.7309 218.885 24.0516C219.208 24.3722 219.389 24.8072 219.39 25.2609V30.3976C219.389 30.8516 219.208 31.2868 218.885 31.6077C218.562 31.9287 218.124 32.1093 217.668 32.1098Z" fill="#0052FF"/>
<path d="M222.26 32.1098C221.803 32.1093 221.365 31.9287 221.043 31.6077C220.72 31.2868 220.538 30.8516 220.538 30.3976V25.2609C220.538 24.8072 220.72 24.3722 221.043 24.0516C221.366 23.7309 221.803 23.5508 222.26 23.5508C222.716 23.5508 223.154 23.7309 223.476 24.0516C223.799 24.3722 223.981 24.8072 223.981 25.2609V30.3976C223.981 30.8516 223.799 31.2868 223.477 31.6077C223.154 31.9287 222.716 32.1093 222.26 32.1098Z" fill="#0052FF"/>
<path d="M229.338 32.1098C228.882 32.1093 228.444 31.9287 228.121 31.6077C227.799 31.2868 227.617 30.8516 227.616 30.3976V25.2609C227.617 24.8072 227.799 24.3722 228.121 24.0516C228.444 23.7309 228.882 23.5508 229.338 23.5508C229.795 23.5508 230.232 23.7309 230.555 24.0516C230.878 24.3722 231.06 24.8072 231.06 25.2609V30.3976C231.06 30.8516 230.878 31.2868 230.555 31.6077C230.232 31.9287 229.795 32.1093 229.338 32.1098Z" fill="#0052FF"/>
<path d="M233.93 32.1098C233.473 32.1093 233.036 31.9287 232.713 31.6077C232.39 31.2868 232.208 30.8516 232.208 30.3976V25.2609C232.208 24.8072 232.39 24.3722 232.713 24.0516C233.036 23.7309 233.473 23.5508 233.93 23.5508C234.386 23.5508 234.824 23.7309 235.147 24.0516C235.469 24.3722 235.651 24.8072 235.652 25.2609V30.3976C235.651 30.8516 235.47 31.2868 235.147 31.6077C234.824 31.9287 234.386 32.1093 233.93 32.1098Z" fill="#0052FF"/>
<path d="M238.521 32.1098C238.065 32.1093 237.627 31.9287 237.304 31.6077C236.982 31.2868 236.8 30.8516 236.8 30.3976V25.2609C236.8 24.8072 236.982 24.3722 237.305 24.0516C237.627 23.7309 238.065 23.5508 238.521 23.5508C238.978 23.5508 239.415 23.7309 239.738 24.0516C240.061 24.3722 240.243 24.8072 240.243 25.2609V30.3976C240.243 30.8516 240.061 31.2868 239.738 31.6077C239.416 31.9287 238.978 32.1093 238.521 32.1098Z" fill="#0052FF"/>
<path d="M192.227 51.1663H167.463C167.311 51.1665 167.16 51.1369 167.019 51.0792C166.879 51.0215 166.751 50.9368 166.643 50.8299C166.536 50.723 166.45 50.5961 166.392 50.4565C166.334 50.3168 166.304 50.167 166.304 50.0158C166.304 49.8646 166.334 49.7148 166.392 49.5751C166.45 49.4354 166.536 49.3085 166.643 49.2017C166.751 49.0948 166.879 49.0101 167.019 48.9524C167.16 48.8947 167.311 48.8651 167.463 48.8653H192.227C192.533 48.8657 192.827 48.9872 193.044 49.2029C193.26 49.4186 193.382 49.711 193.382 50.0158C193.382 50.3206 193.26 50.613 193.044 50.8287C192.827 51.0444 192.533 51.1658 192.227 51.1663Z" fill="#E8E8F7"/>
<path d="M184.287 46.2198H175.402C175.095 46.2198 174.801 46.0986 174.584 45.8828C174.367 45.6671 174.245 45.3744 174.245 45.0693C174.245 44.7642 174.367 44.4715 174.584 44.2558C174.801 44.04 175.095 43.9188 175.402 43.9188H184.287C184.594 43.9188 184.888 44.04 185.105 44.2558C185.322 44.4715 185.444 44.7642 185.444 45.0693C185.444 45.3744 185.322 45.6671 185.105 45.8828C184.888 46.0986 184.594 46.2198 184.287 46.2198Z" fill="#E8E8F7"/>
<path d="M255.548 11.373H161.23V11.7535H255.548V11.373Z" fill="#4B4B60"/>
<path opacity="0.15" d="M150.445 49.9567L150.245 49.5063L158.422 45.9001L160.371 39.0995L157.433 36.737L157.744 36.3536L160.938 38.9211L158.835 46.2571L150.445 49.9567Z" fill="#4B4B60"/>
<path opacity="0.1" d="M142.49 49.0433L140.341 50.0844L136.006 50.5409C135.328 51.1668 134.582 51.7154 133.781 52.1768L129.98 52.0515L123.56 51.8516L145.264 33.4484L149.639 34.517C149.639 34.517 142.288 49.4729 142.49 49.0433Z" fill="#4B4B60"/>
<path d="M172.812 43.1538C172.242 43.2629 171.617 43.3532 170.927 43.4224C167.364 43.7767 159.831 44.2476 159.167 44.2807C154.706 44.4895 151.901 44.4871 151.901 44.4871L142.49 49.0433L140.341 50.0843L122.919 51.9191L146.51 31.9156L149.368 32.6132L154.205 33.7962L159.533 35.099L164.157 35.3058L170.14 35.5726L174.976 35.7886C175.814 35.8175 176.606 36.1749 177.18 36.7828C177.754 37.3907 178.062 38.1997 178.038 39.033C177.963 40.6195 176.856 42.3723 172.812 43.1538Z" fill="#FFB7B7"/>
<path opacity="0.15" d="M174.646 41.9479C174.568 41.9244 172.752 41.3561 172.175 39.7657C171.787 38.6965 172.06 37.4453 172.986 36.0471L173.4 36.318C172.566 37.5781 172.31 38.6809 172.64 39.5956C173.13 40.9533 174.774 41.4716 174.791 41.4766L174.646 41.9479Z" fill="#4B4B60"/>
<path opacity="0.15" d="M151.139 44.5813L142.813 48.6138L143.03 49.0568L151.356 45.0243L151.139 44.5813Z" fill="#4B4B60"/>
<path opacity="0.15" d="M148.03 33.148L159.824 28.5228L160.005 28.9813L149.814 32.9783L158.475 34.5871L158.384 35.0715L148.03 33.148Z" fill="#4B4B60"/>
</g>
</g>
<defs>
<clipPath id="clip0_609_5161">
<rect width="162" height="61" fill="white" transform="translate(94)"/>
</clipPath>
</defs>
</svg>
