<svg width="32" height="32" viewBox="0 0 32 32" fill="none" xmlns="http://www.w3.org/2000/svg">
<path d="M12.965 21C12.8461 21.8343 12.4302 22.5977 11.7937 23.1499C11.1571 23.7022 10.3427 24.0063 9.5 24.0063C8.65728 24.0063 7.84286 23.7022 7.20632 23.1499C6.56979 22.5977 6.15388 21.8343 6.035 21H5V9C5 8.73478 5.10536 8.48043 5.29289 8.29289C5.48043 8.10536 5.73478 8 6 8H20C20.2652 8 20.5196 8.10536 20.7071 8.29289C20.8946 8.48043 21 8.73478 21 9V11H24L27 15.056V21H24.965C24.8461 21.8343 24.4302 22.5977 23.7937 23.1499C23.1571 23.7022 22.3427 24.0063 21.5 24.0063C20.6573 24.0063 19.8429 23.7022 19.2063 23.1499C18.5698 22.5977 18.1539 21.8343 18.035 21H12.965ZM19 10H7V18.05C7.39456 17.6472 7.8806 17.3457 8.41675 17.1711C8.9529 16.9966 9.52329 16.9541 10.0794 17.0474C10.6355 17.1407 11.1608 17.3669 11.6106 17.7069C12.0604 18.0469 12.4215 18.4905 12.663 19H18.337C18.505 18.647 18.73 18.326 19 18.05V10ZM21 16H25V15.715L22.992 13H21V16ZM21.5 22C21.898 22 22.2796 21.8419 22.561 21.5605C22.8424 21.2791 23.0005 20.8975 23.0005 20.4995C23.0005 20.1015 22.8424 19.7199 22.561 19.4385C22.2796 19.1571 21.898 18.999 21.5 18.999C21.102 18.999 20.7204 19.1571 20.439 19.4385C20.1576 19.7199 19.9995 20.1015 19.9995 20.4995C19.9995 20.8975 20.1576 21.2791 20.439 21.5605C20.7204 21.8419 21.102 22 21.5 22ZM11 20.5C11 20.303 10.9612 20.108 10.8858 19.926C10.8104 19.744 10.6999 19.5786 10.5607 19.4393C10.4214 19.3001 10.256 19.1896 10.074 19.1142C9.89204 19.0388 9.69698 19 9.5 19C9.30302 19 9.10796 19.0388 8.92597 19.1142C8.74399 19.1896 8.57863 19.3001 8.43934 19.4393C8.30005 19.5786 8.18956 19.744 8.11418 19.926C8.0388 20.108 8 20.303 8 20.5C8 20.8978 8.15804 21.2794 8.43934 21.5607C8.72064 21.842 9.10218 22 9.5 22C9.89782 22 10.2794 21.842 10.5607 21.5607C10.842 21.2794 11 20.8978 11 20.5Z" fill="#4B4B60"/>
</svg>
