<svg width="56" height="56" viewBox="0 0 56 56" fill="none" xmlns="http://www.w3.org/2000/svg">
<g clip-path="url(#clip0_43949_219)">
<circle cx="28" cy="28" r="26" stroke="#002EB7" stroke-width="4"/>
<path d="M26.6349 44.0999V39.6899C23.8116 39.4799 21.6999 38.6633 20.2999 37.2399C18.8999 35.7933 18.1066 33.9266 17.9199 31.6399H22.2599C22.4233 32.9699 22.8083 34.0316 23.4149 34.8249C24.0449 35.5949 25.1183 36.0733 26.6349 36.2599V28.3849C23.9516 27.9183 21.9683 27.1366 20.6849 26.0399C19.4016 24.9433 18.7599 23.3216 18.7599 21.1749C18.7599 19.2149 19.4833 17.5816 20.9299 16.2749C22.3766 14.9683 24.2783 14.2333 26.6349 14.0699V10.9199H28.9799V14.1049C31.2666 14.3149 33.0749 15.0149 34.4049 16.2049C35.7349 17.3949 36.5049 19.0633 36.7149 21.2099H32.5849C32.1883 19.0633 30.9866 17.8266 28.9799 17.4999V24.6749C31.7566 25.1183 33.8099 25.8883 35.1399 26.9849C36.4933 28.0816 37.1699 29.7499 37.1699 31.9899C37.1699 34.0899 36.4349 35.8633 34.9649 37.3099C33.4949 38.7333 31.4999 39.5266 28.9799 39.6899V44.0999H26.6349ZM31.8149 34.9999C32.5149 34.2999 32.8649 33.4366 32.8649 32.4099C32.8649 31.3833 32.5849 30.6016 32.0249 30.0649C31.4883 29.5283 30.4733 29.0966 28.9799 28.7699V36.2599C30.1699 36.0966 31.1149 35.6766 31.8149 34.9999ZM22.8899 20.7899C22.8899 21.7699 23.1466 22.5283 23.6599 23.0649C24.1733 23.5783 25.1649 23.9866 26.6349 24.2899V17.3949C25.4449 17.5349 24.5233 17.9199 23.8699 18.5499C23.2166 19.1566 22.8899 19.9033 22.8899 20.7899Z" fill="#002EB7"/>
</g>
<defs>
<clipPath id="clip0_43949_219">
<rect width="56" height="56" fill="white"/>
</clipPath>
</defs>
</svg>
