<svg width="32" height="32" viewBox="0 0 32 32" fill="none" xmlns="http://www.w3.org/2000/svg">
<path d="M16 26C10.477 26 6 21.523 6 16C6 10.477 10.477 6 16 6C21.523 6 26 10.477 26 16C26 21.523 21.523 26 16 26ZM13.71 23.667C12.7234 21.5743 12.1519 19.3102 12.027 17H8.062C8.25659 18.5389 8.89392 19.9882 9.89657 21.1717C10.8992 22.3552 12.224 23.2221 13.71 23.667ZM14.03 17C14.181 19.439 14.878 21.73 16 23.752C17.1523 21.6766 17.8254 19.3695 17.97 17H14.03ZM23.938 17H19.973C19.8481 19.3102 19.2766 21.5743 18.29 23.667C19.776 23.2221 21.1008 22.3552 22.1034 21.1717C23.1061 19.9882 23.7434 18.5389 23.938 17ZM8.062 15H12.027C12.1519 12.6898 12.7234 10.4257 13.71 8.333C12.224 8.77788 10.8992 9.64475 9.89657 10.8283C8.89392 12.0118 8.25659 13.4611 8.062 15ZM14.031 15H17.969C17.8248 12.6306 17.152 10.3235 16 8.248C14.8477 10.3234 14.1746 12.6305 14.03 15H14.031ZM18.29 8.333C19.2766 10.4257 19.8481 12.6898 19.973 15H23.938C23.7434 13.4611 23.1061 12.0118 22.1034 10.8283C21.1008 9.64475 19.776 8.77788 18.29 8.333Z" fill="#4B4B60"/>
</svg>
